<svg class="svg-icon" style="width: 1em; height: 1em;vertical-align: middle;fill: currentColor;overflow: hidden;" viewBox="0 0 1024 1024" version="1.1" xmlns="http://www.w3.org/2000/svg"><path d="M1004 1020H20c-8.8 0-16-7.2-16-16s7.2-16 16-16h984c8.8 0 16 7.2 16 16s-7.2 16-16 16z"  /><path d="M194.4 1020H56c-8.8 0-16-7.2-16-16V258.4c0-8.8 7.2-16 16-16h138.4c8.8 0 16 7.2 16 16v745.6c0 8.8-7.2 16-16 16z m-122.4-32h106.4V274.4H72v713.6zM452 1020H313.6c-8.8 0-16-7.2-16-16V416.8c0-8.8 7.2-16 16-16h138.4c8.8 0 16 7.2 16 16v587.2c0 8.8-7.2 16-16 16z m-122.4-32h106.4V432.8H329.6v555.2zM710.4 1020H572c-8.8 0-16-7.2-16-16V20c0-8.8 7.2-16 16-16h138.4c8.8 0 16 7.2 16 16v984c0 8.8-7.2 16-16 16z m-122.4-32h106.4V36H588v952zM968 1020h-138.4c-8.8 0-16-7.2-16-16V178.4c0-8.8 7.2-16 16-16H968c8.8 0 16 7.2 16 16v825.6c0 8.8-7.2 16-16 16z m-122.4-32H952V194.4h-106.4v793.6z"  /></svg>